<?xml version="1.0" encoding="utf-8"?>
<!-- Generator: Adobe Illustrator 25.2.3, SVG Export Plug-In . SVG Version: 6.00 Build 0)  -->
<svg version="1.1" id="Layer_1" xmlns="http://www.w3.org/2000/svg" xmlns:xlink="http://www.w3.org/1999/xlink" x="0px" y="0px"
	 viewBox="0 0 595.28 658.07" style="enable-background:new 0 0 595.28 658.07;" xml:space="preserve">
<style type="text/css">
	.st0{fill:#55AD37;}
	.st1{fill:#FAFBF8;}
	.st2{fill:#FEFEFE;}
</style>
<g>
	<path class="st0" d="M595.27,328.99c1.15,179.79-133.72,331.45-301.21,329.07C136.03,655.82-0.87,510.41,1.52,323.36
		C3.76,148.83,134.71-2.63,303.37,0C461.99,2.47,595.98,147.57,595.27,328.99z M496.87,328.63c0.3-8.22-1.75-16.18-5.29-23.73
		c-11.83-25.25-41.55-34.62-63.63-20.6c-18.35,11.65-28.06,37.14-21.34,60.43c5.4,18.72,22.67,34.43,40.35,35.47
		c10.94,0.64,20.98-1.97,29.93-9.07c1.69-1.34,2.8-1.21,4.17,0.52c1.76,2.24,3.74,4.28,5.68,6.34c2.71,2.88,6.3,3.04,8.58,0.47
		c2.3-2.59,2.16-6.52-0.43-9.55c-1.84-2.15-3.65-4.38-5.71-6.25c-1.73-1.57-1.49-2.71-0.37-4.56
		C494.11,349.3,497.14,339.7,496.87,328.63z M351.06,342.79c0.24-0.35,0.48-0.71,0.72-1.06c6.39-0.61,12.11-3.06,16.82-7.89
		c8.76-8.98,11.74-22.19,7.73-33.56c-4.54-12.88-14.37-20.41-26.86-20.43c-13.91-0.03-27.81,0.04-41.72,0.08
		c-5.79,0.02-7.55,2-7.55,8.47c0,11.84,0,23.69,0,35.53c0,15.52,0.02,31.05-0.02,46.57c-0.01,2.84,0.65,5.25,2.98,6.71
		c4,2.49,8.49-0.65,8.54-6.09c0.09-8.85,0.07-17.71-0.02-26.56c-0.02-2.21,0.5-3.02,2.64-2.94c4.77,0.19,9.57,0.4,14.31-0.07
		c4.14-0.41,6.95,1.4,9.69,4.48c8.91,10.04,17.93,19.96,26.97,29.86c2.9,3.17,6.01,3.27,8.51,0.56c2.54-2.76,2.38-6.43-0.48-9.68
		c-2.22-2.53-4.48-5.02-6.77-7.48C361.41,353.77,356.23,348.29,351.06,342.79z M75.51,301.92c1.5,1.51,2.37,2.32,3.17,3.2
		c21.11,23.41,42.22,46.82,63.3,70.27c2.11,2.35,4.39,3.43,7.27,1.98c2.74-1.39,3.45-3.97,3.44-7.07
		c-0.03-12.08-0.01-24.16-0.01-36.24c0-15.53,0.01-31.06-0.01-46.59c0-4.28-1.82-6.87-5.09-7.41c-3.69-0.61-6.37,2.36-6.38,7.19
		c-0.03,20.94-0.02,41.87-0.03,62.81c0,1.68,0.09,3.36-0.38,4.95c-1.22,0.03-1.61-0.9-2.17-1.52
		c-9.47-10.48-18.92-20.99-28.39-31.48c-11.89-13.17-23.79-26.33-35.69-39.5c-1.99-2.2-4.24-3.33-7.01-1.97
		c-2.44,1.2-3.46,3.32-3.45,6.3c0.04,28.18,0.03,56.37,0.02,84.55c0,1.41,0.11,2.74,0.96,3.89c1.65,2.26,3.71,3.36,6.3,2.46
		c2.96-1.03,4.19-3.42,4.18-6.81c-0.03-21.4-0.02-42.79-0.02-64.19C75.51,305.41,75.51,304.08,75.51,301.92z M226.18,277.78
		c-24.65-0.08-46.08,22.48-45.87,51.6c0.21,29.31,22.16,51.42,47.2,50.92c25.08-0.5,45.53-23.5,45.41-51.69
		C272.8,300.29,251.93,277.59,226.18,277.78z M532.86,329.35c0-14.02,0-28.04,0-42.06c0-1.48,0.1-2.96-0.78-4.29
		c-1.65-2.48-3.75-3.61-6.47-2.7c-2.99,1-4.15,3.42-4.15,6.81c0.03,27.7,0.01,55.39,0.02,83.09c0,5.06,2.21,7.92,5.96,7.81
		c3.45-0.1,5.44-3,5.44-7.98C532.86,356.47,532.86,342.91,532.86,329.35z"/>
	<path class="st1" d="M496.87,328.63c0.27,11.07-2.77,20.68-8.07,29.46c-1.12,1.85-1.36,2.99,0.37,4.56
		c2.06,1.87,3.87,4.09,5.71,6.25c2.59,3.03,2.73,6.96,0.43,9.55c-2.29,2.57-5.87,2.41-8.58-0.47c-1.94-2.06-3.92-4.1-5.68-6.34
		c-1.36-1.73-2.48-1.86-4.17-0.52c-8.95,7.11-18.99,9.72-29.93,9.07c-17.68-1.04-34.95-16.74-40.35-35.47
		c-6.72-23.29,2.99-48.79,21.34-60.43c22.08-14.01,51.8-4.65,63.63,20.6C495.12,312.44,497.17,320.41,496.87,328.63z M485.43,328.88
		c-0.03-19.09-12.67-35.19-29.85-38.03c-14.39-2.38-28.62,5.76-35.71,20.42c-6.83,14.12-4.72,31.66,5.28,43.77
		c11.12,13.47,29.57,16.41,43.41,7.04c1.83-1.24,2.17-2.08,0.51-3.73c-1.38-1.37-2.69-2.87-3.85-4.47
		c-1.85-2.55-1.58-6.23,0.46-8.43c2.12-2.3,5.57-2.36,7.88-0.08c1.38,1.37,2.82,2.71,3.96,4.31c1.17,1.64,1.8,1.31,2.63-0.23
		C483.59,343.12,485.52,336.32,485.43,328.88z"/>
	<path class="st1" d="M351.06,342.79c5.17,5.49,10.34,10.97,15.49,16.49c2.29,2.45,4.55,4.95,6.77,7.48
		c2.86,3.26,3.02,6.92,0.48,9.68c-2.49,2.71-5.61,2.62-8.51-0.56c-9.04-9.9-18.05-19.82-26.97-29.86c-2.73-3.08-5.54-4.88-9.69-4.48
		c-4.74,0.47-9.54,0.25-14.31,0.07c-2.14-0.08-2.66,0.73-2.64,2.94c0.09,8.85,0.11,17.71,0.02,26.56c-0.05,5.45-4.54,8.59-8.54,6.09
		c-2.33-1.45-2.99-3.87-2.98-6.71c0.04-15.52,0.02-31.05,0.02-46.57c0-11.84,0-23.69,0-35.53c0-6.48,1.76-8.46,7.55-8.47
		c13.91-0.04,27.81-0.11,41.72-0.08c12.5,0.02,22.32,7.55,26.86,20.43c4.01,11.37,1.02,24.58-7.73,33.56
		c-4.71,4.83-10.42,7.28-16.82,7.89C351.54,342.08,351.3,342.44,351.06,342.79z M332.99,292.82c0-0.06,0-0.11,0-0.17
		c-6.23,0-12.45,0.02-18.68-0.02c-1.65-0.01-2.65,0.18-2.62,2.59c0.13,10.35,0.1,20.7,0.03,31.04c-0.01,2.05,0.43,2.77,2.41,2.75
		c12.04-0.11,24.08,0.01,36.11-0.1c8.93-0.08,15.9-7.82,16.12-17.65c0.23-9.94-6.33-17.98-15.33-18.4
		C345.03,292.59,339,292.82,332.99,292.82z"/>
	<path class="st1" d="M75.51,301.92c0,2.16,0,3.49,0,4.83c0,21.4-0.01,42.79,0.02,64.19c0,3.39-1.22,5.79-4.18,6.81
		c-2.59,0.9-4.64-0.2-6.3-2.46c-0.85-1.16-0.96-2.49-0.96-3.89c0.01-28.18,0.02-56.37-0.02-84.55c0-2.99,1.01-5.11,3.45-6.3
		c2.77-1.36,5.02-0.23,7.01,1.97c11.9,13.17,23.8,26.33,35.69,39.5c9.47,10.49,18.92,21,28.39,31.48c0.55,0.61,0.95,1.54,2.17,1.52
		c0.47-1.59,0.38-3.27,0.38-4.95c0.01-20.94,0-41.87,0.03-62.81c0.01-4.83,2.69-7.79,6.38-7.19c3.27,0.54,5.09,3.13,5.09,7.41
		c0.02,15.53,0.01,31.06,0.01,46.59c0,12.08-0.02,24.16,0.01,36.24c0.01,3.09-0.69,5.68-3.44,7.07c-2.88,1.45-5.15,0.37-7.27-1.98
		c-21.08-23.44-42.19-46.85-63.3-70.27C77.88,304.24,77.01,303.43,75.51,301.92z"/>
	<path class="st1" d="M226.18,277.78c25.75-0.19,46.62,22.51,46.74,50.83c0.12,28.19-20.33,51.19-45.41,51.69
		c-25.05,0.5-47-21.62-47.2-50.92C180.1,300.26,201.54,277.7,226.18,277.78z M261.29,329.09c0.02-21.36-15.47-38.63-34.67-38.65
		c-18.95-0.02-34.69,17.36-34.71,38.31c-0.02,21.36,15.47,38.76,34.57,38.82C245.67,367.63,261.27,350.39,261.29,329.09z"/>
	<path class="st2" d="M532.86,329.35c0,13.56,0,27.12,0,40.68c0,4.98-1.99,7.88-5.44,7.98c-3.75,0.11-5.96-2.76-5.96-7.81
		c-0.01-27.7,0.01-55.39-0.02-83.09c0-3.39,1.16-5.8,4.15-6.81c2.72-0.91,4.82,0.22,6.47,2.7c0.89,1.33,0.78,2.81,0.78,4.29
		C532.86,301.31,532.86,315.33,532.86,329.35z"/>
	<path class="st0" d="M485.44,328.88c0.08,7.44-1.84,14.23-5.28,20.57c-0.84,1.54-1.47,1.86-2.63,0.23
		c-1.14-1.6-2.58-2.94-3.96-4.31c-2.31-2.29-5.76-2.22-7.88,0.08c-2.04,2.21-2.31,5.88-0.46,8.43c1.16,1.6,2.47,3.09,3.85,4.47
		c1.66,1.65,1.32,2.49-0.51,3.73c-13.84,9.37-32.3,6.43-43.41-7.04c-9.99-12.11-12.11-29.65-5.28-43.77
		c7.09-14.66,21.33-22.8,35.71-20.42C472.76,293.69,485.4,309.8,485.44,328.88z"/>
	<path class="st0" d="M332.99,292.82c6.02,0,12.04-0.23,18.05,0.05c9.01,0.42,15.56,8.47,15.33,18.4
		c-0.22,9.83-7.2,17.57-16.12,17.65c-12.04,0.1-24.08-0.01-36.11,0.1c-1.99,0.02-2.43-0.71-2.41-2.75
		c0.08-10.35,0.11-20.7-0.03-31.04c-0.03-2.41,0.96-2.6,2.62-2.59c6.23,0.04,12.45,0.02,18.68,0.02
		C332.99,292.71,332.99,292.76,332.99,292.82z"/>
	<path class="st0" d="M261.29,329.09c-0.02,21.3-15.62,38.55-34.81,38.49c-19.1-0.06-34.59-17.46-34.57-38.82
		c0.02-20.96,15.76-38.33,34.71-38.31C245.82,290.45,261.31,307.72,261.29,329.09z"/>
</g>
</svg>
