<?xml version="1.0" encoding="utf-8"?>
<!-- Generator: Adobe Illustrator 25.2.3, SVG Export Plug-In . SVG Version: 6.00 Build 0)  -->
<svg version="1.1" id="Layer_1" xmlns="http://www.w3.org/2000/svg" xmlns:xlink="http://www.w3.org/1999/xlink" x="0px" y="0px"
	 viewBox="0 0 397.52 397.65" style="enable-background:new 0 0 397.52 397.65;" xml:space="preserve">
<style type="text/css">
	.st0{fill:#55AD37;}
	.st1{fill:#FAFBF8;}
	.st2{fill:#FEFEFE;}
</style>
<g>
	<path class="st0" d="M397.52,198.8c0.77,108.64-89.53,200.29-201.66,198.85C90.06,396.3-1.6,308.43,0,195.4
		C1.5,89.93,89.17-1.59,202.09,0C308.29,1.49,398,89.17,397.52,198.8z M331.65,198.58c0.2-4.97-1.17-9.78-3.54-14.34
		c-7.92-15.26-27.82-20.92-42.6-12.45c-12.29,7.04-18.79,22.44-14.29,36.52c3.62,11.31,15.18,20.8,27.01,21.43
		c7.32,0.39,14.05-1.19,20.04-5.48c1.13-0.81,1.88-0.73,2.79,0.31c1.18,1.35,2.51,2.59,3.81,3.83c1.81,1.74,4.22,1.84,5.75,0.28
		c1.54-1.57,1.45-3.94-0.29-5.77c-1.23-1.3-2.44-2.65-3.83-3.78c-1.16-0.95-1-1.64-0.25-2.76
		C329.79,211.07,331.82,205.27,331.65,198.58z M234.02,207.14c0.16-0.21,0.32-0.43,0.48-0.64c4.28-0.37,8.11-1.85,11.26-4.77
		c5.86-5.43,7.86-13.41,5.18-20.28c-3.04-7.78-9.62-12.33-17.98-12.35c-9.31-0.02-18.62,0.03-27.93,0.05
		c-3.88,0.01-5.05,1.21-5.05,5.12c0,7.16,0,14.31,0,21.47c0,9.38,0.01,18.76-0.01,28.14c0,1.72,0.43,3.17,2,4.05
		c2.68,1.51,5.68-0.39,5.72-3.68c0.06-5.35,0.04-10.7-0.01-16.05c-0.01-1.33,0.34-1.83,1.77-1.78c3.19,0.11,6.41,0.24,9.58-0.04
		c2.77-0.25,4.65,0.84,6.49,2.7c5.97,6.06,12,12.06,18.05,18.04c1.94,1.92,4.03,1.98,5.7,0.34c1.7-1.67,1.59-3.88-0.32-5.85
		c-1.49-1.53-3-3.04-4.53-4.52C240.95,213.77,237.48,210.46,234.02,207.14z M49.54,182.44c1.01,0.91,1.59,1.4,2.12,1.94
		c14.13,14.15,28.26,28.29,42.38,42.46c1.41,1.42,2.94,2.07,4.86,1.2c1.84-0.84,2.31-2.4,2.3-4.27c-0.02-7.3-0.01-14.6-0.01-21.9
		c0-9.38,0.01-18.77,0-28.15c0-2.59-1.22-4.15-3.41-4.48c-2.47-0.37-4.27,1.42-4.27,4.34c-0.02,12.65-0.02,25.3-0.02,37.95
		c0,1.01,0.06,2.03-0.25,2.99c-0.82,0.02-1.08-0.55-1.45-0.92c-6.34-6.33-12.67-12.68-19.01-19.02
		c-7.96-7.96-15.93-15.91-23.89-23.87c-1.33-1.33-2.84-2.01-4.69-1.19c-1.64,0.72-2.31,2.01-2.31,3.81
		c0.03,17.03,0.02,34.06,0.01,51.09c0,0.85,0.08,1.65,0.64,2.35c1.11,1.36,2.48,2.03,4.22,1.49c1.98-0.62,2.8-2.07,2.8-4.12
		c-0.02-12.93-0.01-25.86-0.02-38.79C49.54,184.55,49.54,183.75,49.54,182.44z M150.41,167.85c-16.5-0.05-30.85,13.58-30.71,31.18
		c0.14,17.71,14.83,31.07,31.6,30.77c16.79-0.3,30.48-14.2,30.4-31.24C181.63,181.46,167.65,167.74,150.41,167.85z M355.74,199.01
		c0-8.47,0-16.94,0-25.42c0-0.89,0.07-1.79-0.52-2.59c-1.11-1.5-2.51-2.18-4.33-1.63c-2,0.61-2.78,2.07-2.78,4.11
		c0.02,16.74,0.01,33.47,0.01,50.21c0,3.06,1.48,4.78,3.99,4.72c2.31-0.06,3.64-1.81,3.64-4.82
		C355.74,215.4,355.74,207.21,355.74,199.01z"/>
	<path class="st1" d="M331.65,198.58c0.18,6.69-1.85,12.5-5.41,17.8c-0.75,1.12-0.91,1.81,0.25,2.76c1.38,1.13,2.59,2.47,3.83,3.78
		c1.73,1.83,1.83,4.2,0.29,5.77c-1.53,1.55-3.93,1.46-5.75-0.28c-1.3-1.25-2.63-2.48-3.81-3.83c-0.91-1.05-1.66-1.12-2.79-0.31
		c-5.99,4.3-12.71,5.87-20.04,5.48c-11.84-0.63-23.4-10.12-27.01-21.43c-4.5-14.08,2-29.48,14.29-36.52
		c14.78-8.47,34.68-2.81,42.6,12.45C330.47,188.8,331.85,193.61,331.65,198.58z M323.99,198.73c-0.02-11.53-8.48-21.27-19.98-22.98
		c-9.63-1.44-19.16,3.48-23.91,12.34c-4.57,8.53-3.16,19.13,3.53,26.45c7.44,8.14,19.8,9.92,29.07,4.25
		c1.22-0.75,1.45-1.26,0.34-2.25c-0.92-0.83-1.8-1.73-2.58-2.7c-1.24-1.54-1.06-3.76,0.31-5.1c1.42-1.39,3.73-1.43,5.28-0.05
		c0.92,0.83,1.89,1.64,2.65,2.6c0.78,0.99,1.2,0.79,1.76-0.14C322.75,207.34,324.04,203.23,323.99,198.73z"/>
	<path class="st1" d="M234.02,207.14c3.46,3.32,6.93,6.63,10.37,9.96c1.53,1.48,3.04,2.99,4.53,4.52c1.92,1.97,2.02,4.18,0.32,5.85
		c-1.67,1.64-3.76,1.58-5.7-0.34c-6.05-5.98-12.09-11.98-18.05-18.04c-1.83-1.86-3.71-2.95-6.49-2.7c-3.17,0.28-6.39,0.15-9.58,0.04
		c-1.43-0.05-1.78,0.44-1.77,1.78c0.06,5.35,0.07,10.7,0.01,16.05c-0.04,3.29-3.04,5.19-5.72,3.68c-1.56-0.88-2-2.34-2-4.05
		c0.02-9.38,0.01-18.76,0.01-28.14c0-7.16,0-14.31,0-21.47c0-3.92,1.18-5.11,5.05-5.12c9.31-0.02,18.62-0.07,27.93-0.05
		c8.37,0.02,14.94,4.57,17.98,12.35c2.68,6.87,0.68,14.85-5.18,20.28c-3.15,2.92-6.98,4.4-11.26,4.77
		C234.34,206.71,234.18,206.93,234.02,207.14z M221.92,176.94c0-0.03,0-0.07,0-0.1c-4.17,0-8.34,0.01-12.51-0.01
		c-1.11-0.01-1.77,0.11-1.75,1.57c0.09,6.25,0.07,12.51,0.02,18.76c-0.01,1.24,0.29,1.68,1.62,1.66c8.06-0.07,16.12,0.01,24.18-0.06
		c5.98-0.05,10.65-4.73,10.8-10.67c0.15-6-4.24-10.87-10.27-11.12C229.98,176.81,225.95,176.94,221.92,176.94z"/>
	<path class="st1" d="M49.54,182.44c0,1.31,0,2.11,0,2.92c0,12.93-0.01,25.86,0.02,38.79c0,2.05-0.82,3.5-2.8,4.12
		c-1.73,0.54-3.11-0.12-4.22-1.49c-0.57-0.7-0.64-1.5-0.64-2.35c0-17.03,0.01-34.06-0.01-51.09c0-1.8,0.68-3.09,2.31-3.81
		c1.85-0.82,3.36-0.14,4.69,1.19c7.96,7.96,15.93,15.91,23.89,23.87c6.34,6.34,12.67,12.69,19.01,19.02
		c0.37,0.37,0.64,0.93,1.45,0.92c0.31-0.96,0.25-1.98,0.25-2.99c0-12.65,0-25.3,0.02-37.95c0-2.92,1.8-4.71,4.27-4.34
		c2.19,0.33,3.41,1.89,3.41,4.48c0.01,9.38,0,18.77,0,28.15c0,7.3-0.01,14.6,0.01,21.9c0.01,1.87-0.46,3.43-2.3,4.27
		c-1.93,0.88-3.45,0.22-4.86-1.2c-14.11-14.17-28.25-28.31-42.38-42.46C51.12,183.84,50.54,183.35,49.54,182.44z"/>
	<path class="st1" d="M150.41,167.85c17.24-0.11,31.21,13.6,31.3,30.72c0.08,17.03-13.61,30.93-30.4,31.24
		c-16.77,0.3-31.46-13.06-31.6-30.77C119.56,181.44,133.91,167.81,150.41,167.85z M173.92,198.86
		c0.01-12.91-10.36-23.34-23.21-23.36c-12.69-0.01-23.23,10.49-23.24,23.15c-0.01,12.91,10.36,23.42,23.14,23.46
		C163.46,222.15,173.91,211.73,173.92,198.86z"/>
	<path class="st2" d="M355.74,199.01c0,8.19,0,16.39,0,24.58c0,3.01-1.33,4.76-3.64,4.82c-2.51,0.06-3.99-1.67-3.99-4.72
		c0-16.74,0.01-33.47-0.01-50.21c0-2.05,0.78-3.51,2.78-4.11c1.82-0.55,3.23,0.13,4.33,1.63c0.59,0.8,0.52,1.7,0.52,2.59
		C355.74,182.07,355.74,190.54,355.74,199.01z"/>
	<path class="st0" d="M323.99,198.74c0.06,4.49-1.23,8.6-3.54,12.43c-0.56,0.93-0.98,1.13-1.76,0.14c-0.76-0.96-1.73-1.78-2.65-2.6
		c-1.55-1.38-3.86-1.34-5.28,0.05c-1.37,1.33-1.55,3.55-0.31,5.1c0.78,0.97,1.65,1.87,2.58,2.7c1.11,1,0.88,1.51-0.34,2.25
		c-9.27,5.66-21.62,3.88-29.07-4.25c-6.69-7.31-8.1-17.92-3.53-26.45c4.75-8.86,14.28-13.78,23.91-12.34
		C315.5,177.47,323.96,187.2,323.99,198.74z"/>
	<path class="st0" d="M221.92,176.94c4.03,0,8.06-0.14,12.09,0.03c6.03,0.25,10.42,5.12,10.27,11.12
		c-0.15,5.94-4.82,10.62-10.8,10.67c-8.06,0.06-16.12-0.01-24.18,0.06c-1.33,0.01-1.63-0.43-1.62-1.66
		c0.05-6.25,0.07-12.51-0.02-18.76c-0.02-1.46,0.64-1.57,1.75-1.57c4.17,0.02,8.34,0.01,12.51,0.01
		C221.92,176.87,221.92,176.91,221.92,176.94z"/>
	<path class="st0" d="M173.92,198.86c-0.01,12.87-10.46,23.29-23.31,23.26c-12.79-0.04-23.16-10.55-23.14-23.46
		c0.01-12.66,10.55-23.16,23.24-23.15C163.56,175.51,173.93,185.95,173.92,198.86z"/>
</g>
</svg>
